<svg height="1358" width="720" xmlns="http://www.w3.org/2000/svg">
<rect height="1358" fill="#555" width="720"></rect>
<text fill="#7f7" font-family="Courier New" font-size="12" xml:space="preserve">
<tspan x="10" y="26">9 megabytes installed</tspan>
<tspan x="10" y="42"></tspan>
<tspan x="10" y="58">node_modules</tspan>
<tspan x="10" y="74">├── async@0.9.2 </tspan>
<tspan x="10" y="90">├─┬ color@0.8.0 </tspan>
<tspan x="10" y="106">│ ├── color-convert@0.5.3 </tspan>
<tspan x="10" y="122">│ └─┬ color-string@0.3.0 </tspan>
<tspan x="10" y="138">│   └── color-name@1.1.2 </tspan>
<tspan x="10" y="154">├── cssesc@0.1.0 </tspan>
<tspan x="10" y="170">├── imageinfo@1.0.4 </tspan>
<tspan x="10" y="186">├─┬ json2css@6.1.0 </tspan>
<tspan x="10" y="202">│ ├── json-content-demux@0.1.3 </tspan>
<tspan x="10" y="218">│ ├── mustache@0.7.3 </tspan>
<tspan x="10" y="234">│ └── underscore@1.4.4 </tspan>
<tspan x="10" y="250">├─┬ layout@2.2.0 </tspan>
<tspan x="10" y="266">│ └── bin-pack@1.0.2 </tspan>
<tspan x="10" y="282">├── lodash@3.10.1 </tspan>
<tspan x="10" y="298">├── mustache@1.2.0 </tspan>
<tspan x="10" y="314">├─┬ nomnom@1.8.1 </tspan>
<tspan x="10" y="330">│ ├─┬ chalk@0.4.0 </tspan>
<tspan x="10" y="346">│ │ ├── ansi-styles@1.0.0 </tspan>
<tspan x="10" y="362">│ │ ├── has-color@0.1.7 </tspan>
<tspan x="10" y="378">│ │ └── strip-ansi@0.1.1 </tspan>
<tspan x="10" y="394">│ └── underscore@1.6.0 </tspan>
<tspan x="10" y="410">└─┬ vinyl-fs@1.0.0 </tspan>
<tspan x="10" y="426">  ├─┬ duplexify@3.5.0 </tspan>
<tspan x="10" y="442">  │ ├─┬ end-of-stream@1.0.0 </tspan>
<tspan x="10" y="458">  │ │ └─┬ once@1.3.3 </tspan>
<tspan x="10" y="474">  │ │   └── wrappy@1.0.2 </tspan>
<tspan x="10" y="490">  │ ├── inherits@2.0.3 </tspan>
<tspan x="10" y="506">  │ ├─┬ readable-stream@2.2.9 </tspan>
<tspan x="10" y="522">  │ │ ├── buffer-shims@1.0.0 </tspan>
<tspan x="10" y="538">  │ │ ├── core-util-is@1.0.2 </tspan>
<tspan x="10" y="554">  │ │ ├── isarray@1.0.0 </tspan>
<tspan x="10" y="570">  │ │ ├── process-nextick-args@1.0.7 </tspan>
<tspan x="10" y="586">  │ │ ├── string_decoder@1.0.0 </tspan>
<tspan x="10" y="602">  │ │ └── util-deprecate@1.0.2 </tspan>
<tspan x="10" y="618">  │ └── stream-shift@1.0.0 </tspan>
<tspan x="10" y="634">  ├─┬ glob-stream@4.1.1 </tspan>
<tspan x="10" y="650">  │ ├─┬ glob@4.5.3 </tspan>
<tspan x="10" y="666">  │ │ └── inflight@1.0.6 </tspan>
<tspan x="10" y="682">  │ ├─┬ glob2base@0.0.12 </tspan>
<tspan x="10" y="698">  │ │ └── find-index@0.1.1 </tspan>
<tspan x="10" y="714">  │ ├─┬ minimatch@2.0.10 </tspan>
<tspan x="10" y="730">  │ │ └─┬ brace-expansion@1.1.7 </tspan>
<tspan x="10" y="746">  │ │   ├── balanced-match@0.4.2 </tspan>
<tspan x="10" y="762">  │ │   └── concat-map@0.0.1 </tspan>
<tspan x="10" y="778">  │ ├── ordered-read-streams@0.1.0 </tspan>
<tspan x="10" y="794">  │ └─┬ unique-stream@2.2.1 </tspan>
<tspan x="10" y="810">  │   ├─┬ json-stable-stringify@1.0.1 </tspan>
<tspan x="10" y="826">  │   │ └── jsonify@0.0.0 </tspan>
<tspan x="10" y="842">  │   └─┬ through2-filter@2.0.0 </tspan>
<tspan x="10" y="858">  │     └─┬ through2@2.0.3 </tspan>
<tspan x="10" y="874">  │       └─┬ readable-stream@2.2.9 </tspan>
<tspan x="10" y="890">  │         ├── isarray@1.0.0 </tspan>
<tspan x="10" y="906">  │         └── string_decoder@1.0.0 </tspan>
<tspan x="10" y="922">  ├─┬ glob-watcher@0.0.8 </tspan>
<tspan x="10" y="938">  │ └─┬ gaze@0.5.2 </tspan>
<tspan x="10" y="954">  │   └─┬ globule@0.1.0 </tspan>
<tspan x="10" y="970">  │     ├─┬ glob@3.1.21 </tspan>
<tspan x="10" y="986">  │     │ ├── graceful-fs@1.2.3 </tspan>
<tspan x="10" y="1002">  │     │ └── inherits@1.0.2 </tspan>
<tspan x="10" y="1018">  │     ├── lodash@1.0.2 </tspan>
<tspan x="10" y="1034">  │     └─┬ minimatch@0.2.14 </tspan>
<tspan x="10" y="1050">  │       ├── lru-cache@2.7.3 </tspan>
<tspan x="10" y="1066">  │       └── sigmund@1.0.1 </tspan>
<tspan x="10" y="1082">  ├─┬ graceful-fs@3.0.11 </tspan>
<tspan x="10" y="1098">  │ └── natives@1.1.0 </tspan>
<tspan x="10" y="1114">  ├── merge-stream@0.1.8 </tspan>
<tspan x="10" y="1130">  ├─┬ mkdirp@0.5.1 </tspan>
<tspan x="10" y="1146">  │ └── minimist@0.0.8 </tspan>
<tspan x="10" y="1162">  ├── object-assign@2.1.1 </tspan>
<tspan x="10" y="1178">  ├─┬ strip-bom@1.0.0 </tspan>
<tspan x="10" y="1194">  │ ├── first-chunk-stream@1.0.0 </tspan>
<tspan x="10" y="1210">  │ └── is-utf8@0.2.1 </tspan>
<tspan x="10" y="1226">  ├─┬ through2@0.6.5 </tspan>
<tspan x="10" y="1242">  │ ├─┬ readable-stream@1.0.34 </tspan>
<tspan x="10" y="1258">  │ │ ├── isarray@0.0.1 </tspan>
<tspan x="10" y="1274">  │ │ └── string_decoder@0.10.31 </tspan>
<tspan x="10" y="1290">  │ └── xtend@4.0.1 </tspan>
<tspan x="10" y="1306">  └─┬ vinyl@0.4.6 </tspan>
<tspan x="10" y="1322">    ├── clone@0.2.0 </tspan>
<tspan x="10" y="1338">    └── clone-stats@0.0.1</tspan>
</text>
</svg>
